<?xml version="1.0" standalone="no"?>
<!DOCTYPE svg PUBLIC "-//W3C//DTD SVG 20010904//EN"
 "http://www.w3.org/TR/2001/REC-SVG-20010904/DTD/svg10.dtd">
<svg version="1.0" xmlns="http://www.w3.org/2000/svg"
 width="300.000000pt" height="225.000000pt" viewBox="0 0 300.000000 225.000000"
 preserveAspectRatio="xMidYMid meet">

<g transform="translate(0.000000,225.000000) scale(0.100000,-0.100000)"
fill="#000000" stroke="none">
<path d="M1471 2074 c74 -78 78 -122 19 -208 -24 -35 -40 -70 -40 -88 0 -40
40 -78 82 -78 30 1 31 2 16 14 -26 19 -22 46 13 94 40 54 49 90 37 145 -11 52
-60 107 -123 139 l-40 20 36 -38z"/>
<path d="M1438 2068 c36 -58 30 -91 -28 -156 -80 -89 -89 -152 -31 -210 l29
-29 -49 4 c-27 1 -72 5 -100 7 -30 2 -45 0 -37 -5 7 -5 8 -9 2 -9 -13 0 -47
36 -63 67 -6 12 -11 41 -11 64 0 42 -34 129 -50 129 -5 0 -4 -14 2 -31 6 -16
8 -47 5 -67 -9 -55 8 -114 40 -139 15 -13 23 -23 17 -23 -5 0 -23 14 -39 30
-27 28 -30 38 -35 123 -6 96 -13 119 -51 152 -22 20 -22 20 -15 0 16 -45 18
-78 6 -135 -15 -72 -9 -99 31 -139 17 -17 26 -31 21 -31 -6 0 -24 16 -41 35
-35 40 -40 82 -20 161 17 66 -8 127 -63 155 l-40 21 26 -35 c32 -42 34 -92 6
-147 -24 -47 -26 -129 -5 -170 l15 -29 287 3 c159 1 297 6 307 11 15 6 17 5
11 -4 -6 -11 9 -12 71 -9 44 3 88 8 98 13 14 6 17 5 12 -3 -11 -19 15 -14 52
8 43 26 63 76 61 148 -2 31 1 68 5 81 6 16 5 21 -3 17 -21 -13 -39 -61 -46
-121 -4 -33 -16 -74 -26 -91 l-19 -31 -100 -2 c-55 -1 -100 2 -100 6 0 5 -18
7 -39 5 -81 -8 -119 80 -68 157 12 19 30 46 39 60 10 14 18 37 18 51 0 31 -42
98 -78 125 l-26 19 22 -36z"/>
<path d="M2004 2021 c-18 -11 -39 -30 -48 -42 -18 -26 -21 -97 -6 -149 15 -52
2 -97 -38 -136 l-35 -34 61 0 c56 0 63 3 79 27 24 37 22 116 -5 177 -30 67
-28 98 9 141 35 39 29 44 -17 16z"/>
<path d="M1903 1953 c-24 -31 -28 -47 -31 -112 -4 -104 -8 -119 -45 -152 -31
-29 -31 -29 -7 -29 32 0 84 32 106 65 14 21 15 37 9 88 -12 86 -10 144 5 162
8 10 9 15 2 15 -6 0 -24 -16 -39 -37z"/>
<path d="M1617 1891 c-3 -27 -18 -59 -41 -88 -41 -53 -42 -56 -19 -79 17 -16
18 -15 24 15 4 18 21 47 38 65 33 34 39 66 17 105 -13 23 -13 22 -19 -18z"/>
<path d="M1160 1771 c0 -6 13 -25 29 -43 26 -30 35 -33 100 -36 39 -2 71 -1
71 2 0 4 -7 18 -16 31 -13 21 -19 23 -36 14 -28 -15 -81 -5 -118 21 -17 12
-30 17 -30 11z"/>
<path d="M1761 1753 c-42 -28 -70 -29 -120 -3 -34 17 -40 18 -45 4 -16 -41 11
-64 74 -64 62 0 95 13 115 44 25 37 15 45 -24 19z"/>
<path d="M960 1569 l0 -81 -21 23 c-16 19 -19 20 -15 6 3 -10 6 -45 6 -77 0
-47 3 -59 18 -63 21 -5 -46 -37 -78 -37 -12 0 -18 -4 -15 -10 9 -14 -8 -12
-41 5 -16 8 -23 15 -15 15 8 0 12 3 8 6 -12 12 -40 -15 -53 -52 -15 -44 -17
-109 -4 -139 l9 -20 2 20 c1 11 2 27 1 35 0 8 5 18 11 22 19 12 64 9 76 -5 9
-12 3 -13 -32 -10 l-42 3 33 -28 c17 -16 32 -38 32 -50 0 -14 5 -20 14 -16 8
3 23 1 33 -5 15 -9 14 -10 -12 -11 -32 0 -57 12 -57 26 0 5 -8 17 -18 27 -19
17 -20 16 -28 -15 -6 -24 -5 -36 4 -43 21 -16 74 -142 74 -176 0 -28 -2 -30
-17 -18 -15 11 -14 10 1 -9 19 -22 19 -22 -2 -22 -24 0 -27 -15 -13 -53 12
-31 62 -50 97 -37 53 21 70 13 103 -45 51 -89 173 -156 389 -210 70 -18 74
-18 145 0 215 54 337 121 388 210 33 58 50 66 103 45 31 -12 82 4 96 30 18 33
12 60 -12 60 -21 0 -21 0 -2 22 19 22 19 22 0 8 -18 -14 -19 -13 -14 25 6 40
62 171 77 177 4 2 4 18 -1 36 -8 31 -9 32 -28 15 -10 -10 -18 -22 -18 -27 0
-14 -25 -26 -57 -26 -26 1 -27 2 -12 11 10 6 25 8 33 5 8 -3 15 0 15 7 1 7 2
17 3 23 0 6 15 23 31 38 l30 27 -25 -2 c-41 -2 -52 0 -45 11 7 12 55 13 72 2
6 -4 11 -14 11 -22 -1 -8 0 -24 1 -35 l2 -20 9 20 c28 66 -8 195 -55 195 -5 0
-3 -5 5 -10 13 -8 12 -10 -2 -10 -10 0 -18 -4 -18 -10 0 -5 -9 -10 -21 -10
-11 0 -17 5 -14 10 3 6 -3 10 -15 10 -11 0 -37 7 -57 15 -32 13 -34 17 -20 28
11 8 17 32 19 80 3 66 3 68 -15 46 -17 -21 -17 -19 -17 60 l0 81 -520 0 -520
0 0 -81z m59 31 c13 20 24 7 16 -19 -4 -12 -12 -18 -21 -14 -7 3 -14 0 -14 -6
0 -6 7 -11 15 -11 8 0 15 -7 15 -15 0 -9 -6 -12 -15 -9 -8 4 -15 1 -15 -5 0
-6 7 -11 15 -11 8 0 15 -7 15 -15 0 -9 -6 -12 -15 -9 -8 4 -15 1 -15 -5 0 -6
7 -11 15 -11 8 0 15 -7 15 -15 0 -9 -6 -12 -15 -9 -8 4 -15 1 -15 -5 0 -6 7
-11 15 -11 8 0 15 -7 15 -15 0 -9 -6 -12 -15 -9 -8 4 -15 1 -15 -5 0 -6 8 -11
18 -11 14 0 15 -2 2 -10 -8 -5 -18 -10 -22 -10 -5 0 -8 55 -8 123 0 83 3 117
10 107 9 -13 11 -13 19 0z m61 -5 c0 -8 -4 -15 -10 -15 -5 0 -10 7 -10 15 0 8
5 15 10 15 6 0 10 -7 10 -15z m40 0 c0 -8 -7 -15 -15 -15 -9 0 -12 6 -9 15 4
8 10 15 15 15 5 0 9 -7 9 -15z m40 0 c0 -8 -7 -15 -15 -15 -9 0 -12 6 -9 15 4
8 10 15 15 15 5 0 9 -7 9 -15z m40 0 c0 -8 -7 -15 -15 -15 -9 0 -12 6 -9 15 4
8 10 15 15 15 5 0 9 -7 9 -15z m37 0 c0 -8 -6 -15 -13 -15 -8 0 -11 6 -8 15 4
8 9 15 13 15 4 0 8 -7 8 -15z m40 0 c0 -8 -6 -15 -12 -15 -6 0 -12 7 -12 15 0
8 6 15 12 15 6 0 12 -7 12 -15z m40 0 c0 -8 -6 -15 -12 -15 -6 0 -12 7 -12 15
0 8 6 15 12 15 6 0 12 -7 12 -15z m40 0 c0 -8 -6 -15 -12 -15 -6 0 -12 7 -12
15 0 8 6 15 12 15 6 0 12 -7 12 -15z m40 0 c0 -8 -6 -15 -12 -15 -6 0 -12 7
-12 15 0 8 6 15 12 15 6 0 12 -7 12 -15z m37 0 c3 -9 0 -15 -8 -15 -7 0 -13 7
-13 15 0 8 4 15 8 15 4 0 9 -7 13 -15z m40 0 c3 -9 0 -15 -9 -15 -8 0 -15 7
-15 15 0 8 4 15 9 15 5 0 11 -7 15 -15z m40 0 c3 -9 0 -15 -9 -15 -8 0 -15 7
-15 15 0 8 4 15 9 15 5 0 11 -7 15 -15z m40 0 c3 -9 0 -15 -9 -15 -8 0 -15 7
-15 15 0 8 4 15 9 15 5 0 11 -7 15 -15z m40 0 c3 -9 0 -15 -9 -15 -8 0 -15 7
-15 15 0 8 4 15 9 15 5 0 11 -7 15 -15z m36 0 c0 -8 -4 -15 -10 -15 -5 0 -10
7 -10 15 0 8 5 15 10 15 6 0 10 -7 10 -15z m40 0 c0 -8 -4 -15 -10 -15 -5 0
-10 7 -10 15 0 8 5 15 10 15 6 0 10 -7 10 -15z m40 0 c0 -8 -4 -15 -10 -15 -5
0 -10 7 -10 15 0 8 5 15 10 15 6 0 10 -7 10 -15z m40 0 c0 -8 -4 -15 -10 -15
-5 0 -10 7 -10 15 0 8 5 15 10 15 6 0 10 -7 10 -15z m40 0 c0 -8 -4 -15 -10
-15 -5 0 -10 7 -10 15 0 8 5 15 10 15 6 0 10 -7 10 -15z m40 0 c0 -8 -7 -15
-15 -15 -9 0 -12 6 -9 15 4 8 10 15 15 15 5 0 9 -7 9 -15z m40 0 c0 -8 -7 -15
-15 -15 -9 0 -12 6 -9 15 4 8 10 15 15 15 5 0 9 -7 9 -15z m37 0 c0 -8 -6 -15
-13 -15 -8 0 -11 6 -8 15 4 8 9 15 13 15 4 0 8 -7 8 -15z m41 3 c-2 -7 3 -12
10 -10 6 1 12 -5 12 -13 0 -8 -4 -14 -9 -12 -5 1 -8 -2 -7 -8 0 -5 4 -9 9 -7
4 1 7 -14 7 -33 0 -26 -3 -33 -15 -29 -8 4 -15 1 -15 -5 0 -6 7 -11 15 -11 11
0 15 -12 15 -50 0 -50 -4 -56 -27 -42 -17 10 -22 232 -5 232 6 0 11 -6 10 -12z
m-458 -68 c-15 -10 -14 -10 70 -14 33 -2 50 -14 44 -30 -4 -10 -14 -12 -45 -5
-45 10 -59 6 -59 -19 -1 -15 -2 -15 -11 2 -9 14 -8 20 2 27 11 7 9 9 -6 9 -35
0 -65 -12 -65 -25 0 -17 -28 -27 -33 -12 -4 14 -77 -30 -77 -48 0 -14 -28 -41
-35 -33 -9 8 8 48 20 48 7 0 18 7 25 15 19 22 -6 20 -40 -5 -15 -10 -46 -22
-69 -26 -23 -4 -44 -11 -47 -15 -7 -12 -51 -11 -58 0 -4 5 3 7 13 4 11 -3 30
2 43 11 12 9 37 16 55 16 17 0 35 5 39 11 4 7 1 10 -7 7 -8 -3 -22 -1 -33 4
-12 7 -22 6 -29 -1 -6 -6 -18 -11 -27 -10 -10 0 -11 2 -2 6 18 7 15 23 -5 24
-11 0 -13 3 -6 6 7 2 30 -1 50 -8 50 -17 84 -13 136 16 23 13 59 27 80 30 20
4 40 11 43 16 3 5 15 9 27 9 18 0 19 -2 7 -10z m-382 -57 c-9 -10 -17 -24 -20
-32 -3 -10 -6 -10 -17 3 -11 14 -11 16 3 16 9 0 16 7 16 15 0 8 7 15 17 15 14
0 15 -2 1 -17z m733 -18 c-18 -8 -53 -15 -77 -15 -40 0 -44 -2 -44 -25 0 -30
-25 -34 -40 -5 -9 16 -8 20 5 20 8 0 15 4 15 8 0 11 82 29 135 30 l40 1 -34
-14z m-201 -31 c11 -20 11 -27 2 -33 -7 -4 -10 -15 -7 -23 8 -21 52 -29 66
-12 15 19 39 18 39 -1 0 -8 -4 -15 -9 -15 -5 0 -13 -9 -16 -21 -4 -12 -12 -18
-21 -15 -10 4 -14 -2 -14 -19 0 -13 -5 -27 -12 -31 -8 -5 -9 -2 -5 9 3 10 4
17 2 17 -3 0 -13 -19 -22 -42 -16 -40 -18 -41 -23 -18 -4 17 0 31 13 45 37 39
40 54 13 61 -16 4 -23 11 -19 20 9 25 -16 15 -39 -16 -12 -16 -26 -30 -31 -30
-5 0 -5 6 1 13 6 7 9 22 6 33 -5 22 3 34 31 50 12 7 19 20 18 33 -4 29 11 26
27 -5z m-244 -31 c1 -10 4 -30 9 -45 10 -38 -18 -48 -49 -19 -12 12 -25 18
-29 15 -13 -13 -19 26 -7 41 14 17 35 21 25 5 -10 -16 21 -12 35 5 16 19 16
19 16 -2z m414 7 c11 -7 5 -10 -22 -10 -21 0 -38 5 -38 10 0 13 40 13 60 0z
m-595 -21 c-4 -6 -13 -8 -20 -5 -7 2 -18 -1 -24 -7 -7 -7 -11 -7 -11 -1 0 17
11 24 37 24 15 0 22 -4 18 -11z m-159 -28 c-7 -11 -56 -21 -56 -11 0 13 13 20
37 20 13 0 22 -4 19 -9z m199 -18 c-4 -12 0 -14 22 -8 26 6 27 5 9 -8 -13 -9
-15 -16 -8 -21 8 -5 8 -15 2 -31 -8 -20 -6 -27 9 -37 16 -9 17 -17 9 -46 -5
-18 -8 -36 -6 -38 3 -2 18 16 36 41 32 45 67 63 99 50 17 -6 17 -7 0 -17 -18
-9 -18 -10 0 -24 17 -12 16 -13 -7 -14 -15 0 -32 6 -39 13 -11 10 -13 7 -8
-16 4 -24 2 -28 -15 -24 -17 5 -18 1 -15 -34 2 -21 6 -42 10 -46 7 -6 11 11 8
34 -2 16 38 43 55 36 21 -8 17 -24 -7 -30 -18 -5 -20 -11 -16 -39 4 -20 1 -34
-6 -37 -7 -3 -2 -13 13 -27 l25 -22 -25 7 c-14 4 -33 15 -44 24 -18 15 -18 15
-12 -6 5 -15 1 -31 -10 -45 -13 -18 -15 -19 -10 -4 4 12 -1 25 -15 37 -22 19
-17 44 7 35 10 -4 14 3 14 24 0 34 -15 40 -23 9 -3 -12 -10 -18 -17 -14 -6 4
-9 13 -6 21 3 8 -4 29 -15 47 -12 17 -18 23 -14 12 15 -43 17 -55 7 -55 -6 0
-14 6 -18 12 -10 16 -13 98 -4 98 4 0 6 20 6 45 -1 25 -5 45 -10 45 -4 0 -6 9
-3 20 3 13 0 20 -9 20 -16 0 -16 2 -8 23 3 9 13 13 25 10 13 -4 18 -11 14 -20z
m565 19 c0 -5 -8 -17 -19 -26 -17 -15 -19 -15 -25 -1 -10 28 -7 35 19 35 14 0
25 -4 25 -8z m141 -8 c11 -13 9 -14 -17 -8 -40 9 -54 24 -22 24 14 0 31 -7 39
-16z m-1162 -23 c22 -22 16 -35 -18 -39 -18 -2 -22 2 -17 14 3 8 6 22 6 30 0
19 6 18 29 -5z m1391 5 c0 -8 3 -22 6 -30 5 -12 1 -16 -17 -14 -33 4 -40 17
-20 38 20 23 31 24 31 6z m-1099 -13 c12 -16 12 -17 -1 -7 -8 7 -24 14 -35 17
-19 4 -19 5 1 6 12 0 28 -7 35 -16z m814 10 c-11 -3 -27 -10 -35 -17 -13 -10
-13 -9 -1 7 7 9 23 16 35 16 20 -1 20 -2 1 -6z m-706 -24 c-15 -9 -32 -2 -24
11 3 5 13 6 21 3 12 -4 13 -8 3 -14z m166 -10 c-4 -5 -13 -9 -21 -9 -8 0 -12
-4 -9 -10 11 -18 -1 -11 -21 12 -10 12 -14 18 -8 15 7 -4 15 0 18 8 4 13 10
14 26 5 11 -6 18 -15 15 -21z m280 21 c7 -11 -43 -46 -52 -36 -3 3 0 6 8 6 12
0 11 2 -1 10 -13 9 -13 11 0 20 19 12 37 13 45 0z m-720 -24 c18 -17 22 -26
13 -29 -8 -4 -7 -6 5 -6 19 -1 24 -21 5 -21 -21 0 -41 17 -34 29 4 5 -2 19
-14 31 -28 28 -7 25 25 -4z m85 8 c0 -8 -4 -12 -10 -9 -5 3 -10 10 -10 16 0 5
5 9 10 9 6 0 10 -7 10 -16z m67 0 c2 -7 -8 -9 -27 -6 -16 2 -27 8 -24 14 8 12
46 6 51 -8z m697 0 c3 -8 2 -12 -4 -9 -6 3 -10 10 -10 16 0 14 7 11 14 -7z
m160 7 c3 -5 -8 -11 -24 -13 -29 -4 -37 1 -23 15 9 10 41 9 47 -2z m36 0 c0
-6 -4 -13 -10 -16 -5 -3 -10 1 -10 9 0 9 5 16 10 16 6 0 10 -4 10 -9z m90 -11
c-11 -11 -17 -26 -14 -33 3 -8 -6 -18 -21 -25 -20 -9 -25 -9 -25 3 0 18 50 73
68 74 7 1 4 -7 -8 -19z m-306 -6 c8 -22 -4 -40 -15 -23 -11 18 -11 39 0 39 5
0 12 -7 15 -16z m-654 -23 c0 -4 -11 -6 -25 -3 -14 2 -25 6 -25 8 0 2 11 4 25
4 14 0 25 -4 25 -9z m621 -41 c16 0 10 -52 -12 -97 -12 -26 -27 -42 -34 -40
-7 3 -17 -13 -25 -43 -9 -33 -17 -47 -27 -43 -7 3 -13 -1 -13 -10 0 -9 -5 -19
-11 -22 -22 -14 -20 6 6 59 26 54 28 86 4 86 -6 0 -9 -6 -6 -14 5 -13 -27 -96
-37 -96 -3 0 -11 -3 -19 -6 -14 -5 -14 0 -1 42 18 59 18 68 0 61 -8 -3 -22 3
-32 14 -9 10 -28 19 -41 19 -12 0 -23 5 -23 10 0 14 86 6 105 -10 10 -8 15 -9
15 -1 0 6 -4 11 -10 11 -5 0 -10 4 -10 10 0 5 7 7 15 4 24 -10 17 6 -7 16 -20
8 -18 9 12 8 52 -2 93 -25 87 -49 -3 -12 0 -19 9 -19 13 0 19 23 14 64 -1 11
4 38 12 60 12 38 13 39 16 14 2 -16 8 -28 13 -28z m189 46 c0 -2 -11 -6 -25
-8 -14 -3 -25 -1 -25 3 0 5 11 9 25 9 14 0 25 -2 25 -4z m-440 -47 c0 -6 -4
-7 -10 -4 -5 3 -10 11 -10 16 0 6 5 7 10 4 6 -3 10 -11 10 -16z m40 6 c-7 -8
-17 -15 -22 -15 -6 0 -5 7 2 15 7 8 17 15 22 15 6 0 5 -7 -2 -15z m-376 -14
c11 -4 15 -10 10 -13 -5 -4 -20 0 -34 8 -26 14 -9 18 24 5z m736 4 c0 -9 -44
-23 -54 -17 -5 3 -1 9 10 13 23 9 44 11 44 4z m-860 -32 c0 -8 5 -13 12 -11
11 4 25 -9 68 -66 14 -18 13 -19 -2 -13 -10 3 -18 3 -18 -1 0 -11 73 -72 87
-72 16 0 17 -34 3 -61 -14 -24 -30 -25 -23 0 3 10 0 22 -6 25 -7 4 -11 -1 -11
-14 0 -12 -4 -18 -10 -15 -5 3 -10 16 -10 27 0 38 -44 110 -100 165 -30 30
-47 51 -37 47 9 -3 17 -1 17 5 0 6 7 8 15 5 8 -4 15 -13 15 -21z m580 1 c0 -2
-9 0 -20 6 -11 6 -20 13 -20 16 0 2 9 0 20 -6 11 -6 20 -13 20 -16z m411 11
c8 4 -7 -13 -33 -38 -60 -58 -96 -115 -104 -166 -7 -42 -24 -57 -24 -20 0 11
-4 17 -10 14 -6 -4 -8 -15 -5 -26 8 -24 -3 -25 -21 -1 -17 22 -18 62 -1 62 14
0 87 61 87 72 0 4 -8 4 -17 1 -16 -6 -17 -5 -3 13 43 57 57 70 68 66 7 -2 12
3 12 11 0 18 22 28 31 14 4 -5 13 -6 20 -2z m-1101 -48 c0 -26 -15 -12 -25 23
-7 22 -6 23 9 11 9 -7 16 -23 16 -34z m1179 7 c-10 -23 -13 -25 -16 -11 -3 10
1 25 8 33 17 21 21 11 8 -22z m-574 8 c-3 -3 -11 0 -18 7 -9 10 -8 11 6 5 10
-3 15 -9 12 -12z m-580 -12 c3 -5 1 -10 -4 -10 -6 0 -11 5 -11 10 0 6 2 10 4
10 3 0 8 -4 11 -10z m75 -43 c24 -26 36 -45 27 -41 -10 3 -17 10 -17 15 0 4
-15 19 -33 31 -19 13 -32 29 -29 36 2 7 5 12 6 10 2 -2 22 -24 46 -51z m997
14 c-12 -9 -32 -26 -45 -38 -41 -41 -35 -24 10 26 26 29 46 44 50 38 4 -6 -3
-18 -15 -26z m53 29 c0 -5 -5 -10 -11 -10 -5 0 -7 5 -4 10 3 6 8 10 11 10 2 0
4 -4 4 -10z m-570 -44 c-14 -8 -29 -12 -33 -9 -12 8 14 23 38 22 18 0 17 -1
-5 -13z m-15 -46 c3 -6 2 -10 -4 -10 -5 0 -13 5 -16 11 -4 6 -13 8 -21 5 -14
-5 -19 5 -8 17 8 7 40 -8 49 -23z m75 -4 c0 -8 -4 -18 -10 -21 -5 -3 -10 -2
-10 4 0 6 -8 7 -17 4 -16 -6 -16 -5 -4 10 17 21 41 22 41 3z m-469 -38 c8 -16
8 -19 -2 -16 -6 2 -16 14 -20 27 -11 27 6 19 22 -11z m842 12 c-5 -19 -23 -39
-23 -25 0 9 20 45 24 45 2 0 2 -9 -1 -20z m-984 -122 c-6 -10 -14 -16 -20 -13
-5 4 -5 14 1 26 6 11 8 24 5 30 -4 5 -3 18 1 27 5 13 9 9 15 -18 4 -19 3 -42
-2 -52z m107 60 c1 -9 -3 -23 -9 -31 -15 -19 -57 -32 -57 -18 0 6 5 11 11 11
5 0 15 14 21 30 11 32 29 36 34 8z m533 -26 c0 -31 -2 -33 -9 -16 -9 24 -37
38 -42 23 -2 -6 -22 -13 -46 -16 -33 -4 -42 -2 -42 9 0 8 6 15 13 15 37 3 76
11 92 21 27 15 35 6 34 -36z m390 18 c5 -16 15 -30 20 -30 6 0 11 -5 11 -11 0
-14 -42 -1 -57 18 -9 11 -10 29 -4 51 4 12 21 -4 30 -28z m88 -2 c-3 -11 -1
-29 6 -39 6 -10 8 -21 4 -25 -11 -12 -28 11 -28 37 1 52 3 59 12 53 6 -3 8
-15 6 -26z m-632 12 c3 -5 -2 -21 -12 -36 -19 -29 -29 -18 -19 21 7 26 20 32
31 15z m-513 -25 c0 -5 -5 -11 -11 -13 -6 -2 -11 4 -11 13 0 9 5 15 11 13 6
-2 11 -8 11 -13z m462 -30 c5 -29 4 -36 -3 -25 -6 8 -11 28 -11 44 0 39 6 31
14 -19z m716 30 c0 -8 -4 -15 -10 -15 -5 0 -10 7 -10 15 0 8 5 15 10 15 6 0
10 -7 10 -15z m-1024 -19 c-4 -15 -1 -26 7 -30 9 -3 7 -9 -6 -19 -11 -10 -34
-13 -65 -11 -36 3 -41 2 -22 -5 26 -9 23 -13 -10 -13 -40 0 -50 2 -50 11 0 12
86 45 97 38 5 -3 18 8 28 24 24 35 29 36 21 5z m231 2 c38 -43 47 -71 45 -152
-2 -104 20 -141 111 -182 35 -16 39 -16 77 1 22 10 55 34 75 53 35 35 35 35
34 122 -2 89 6 116 44 158 30 32 38 27 21 -13 -18 -44 -18 -88 2 -155 9 -29
14 -66 12 -82 -3 -15 -1 -28 3 -28 13 0 31 58 24 79 -3 12 1 31 11 46 12 18
15 38 12 70 l-5 44 23 -17 c13 -9 29 -30 35 -46 11 -25 10 -34 -9 -67 -29 -50
-30 -82 -1 -45 22 28 72 36 85 14 5 -8 2 -9 -9 -5 -9 3 -19 2 -22 -3 -4 -6 -1
-10 5 -10 6 0 8 -5 5 -10 -5 -8 -12 -7 -23 2 -13 11 -15 10 -10 -9 4 -13 2
-26 -3 -29 -5 -3 -9 0 -9 5 0 6 -7 11 -16 11 -13 0 -14 -3 -5 -14 9 -10 8 -15
-4 -20 -8 -3 -15 -1 -15 4 0 6 -5 10 -11 10 -6 0 -9 -7 -5 -15 7 -18 -5 -20
-23 -2 -10 10 -12 8 -9 -7 1 -10 -3 -21 -9 -23 -7 -3 -13 0 -13 6 0 6 -5 11
-11 11 -6 0 -9 -7 -5 -15 3 -8 1 -15 -4 -15 -6 0 -10 5 -10 10 0 6 -7 10 -16
10 -10 0 -14 -6 -10 -15 3 -8 1 -15 -4 -15 -6 0 -10 5 -10 10 0 6 -5 10 -11
10 -6 0 -9 -6 -6 -14 3 -8 -1 -17 -9 -20 -8 -3 -14 1 -14 9 0 8 -5 15 -11 15
-6 0 -9 -7 -6 -15 4 -8 2 -17 -2 -20 -5 -3 -12 2 -15 11 -3 8 -10 12 -16 9 -6
-4 -8 -10 -5 -15 3 -5 1 -11 -5 -15 -5 -3 -10 1 -10 9 0 23 -17 20 -23 -4 -3
-11 -13 -20 -24 -19 -35 2 -68 15 -68 27 0 7 -4 11 -10 10 -5 -2 -9 -6 -8 -10
4 -10 2 -10 -35 3 -20 7 -29 15 -25 25 3 8 0 14 -6 14 -6 0 -11 -4 -11 -10 0
-5 -8 -10 -17 -9 -11 0 -13 3 -5 6 17 7 15 23 -3 23 -8 0 -15 -4 -15 -10 0 -5
-4 -10 -10 -10 -5 0 -7 7 -4 15 4 8 2 15 -4 15 -6 0 -12 -5 -14 -11 -2 -7 -11
-7 -30 1 -15 7 -24 18 -22 25 3 7 1 16 -5 20 -6 3 -11 -1 -11 -9 0 -10 -6 -13
-15 -10 -12 5 -13 10 -4 20 9 11 8 14 -5 14 -9 0 -16 -5 -16 -12 0 -6 -12 -1
-26 13 -14 13 -20 25 -15 27 6 2 11 8 11 14 0 5 -9 6 -21 3 -15 -5 -19 -4 -15
4 14 21 64 12 85 -15 18 -23 21 -24 21 -8 0 11 -9 33 -20 49 -28 42 -25 60 14
102 l34 38 -5 -48 c-4 -33 -1 -54 11 -71 10 -16 14 -35 10 -53 -4 -20 0 -36
14 -53 l19 -24 -4 31 c-3 16 2 54 11 83 20 67 20 111 2 155 -17 40 -9 45 21
13z m666 -31 c9 8 97 -26 97 -38 0 -9 -10 -11 -50 -11 -33 0 -36 4 -10 12 19
6 12 8 -28 8 -31 -1 -58 4 -65 12 -9 10 -9 13 0 17 8 3 11 14 7 31 -6 27 -6
26 18 -5 14 -18 28 -30 31 -26z m-1073 2 c-7 -11 -14 -18 -17 -15 -8 8 5 36
17 36 7 0 7 -6 0 -21z m1220 -5 c0 -8 -4 -12 -10 -9 -5 3 -10 13 -10 21 0 8 5
12 10 9 6 -3 10 -13 10 -21z m-660 -106 c0 -5 -6 -8 -14 -8 -17 0 -21 5 -30
45 l-7 30 25 -30 c14 -16 25 -33 26 -37z m-60 30 c0 -16 -3 -19 -11 -11 -6 6
-8 16 -5 22 11 17 16 13 16 -11z m175 -10 c-9 -41 -11 -44 -29 -29 -12 10 -11
15 8 36 27 32 29 31 21 -7z m-140 -58 c-7 -12 53 -60 74 -60 10 0 28 11 41 25
13 14 25 23 27 21 2 -2 -8 -16 -22 -30 -25 -25 -85 -37 -85 -17 0 5 -13 14
-30 21 -16 7 -30 16 -30 20 0 5 -3 15 -6 23 -4 12 0 14 15 10 11 -3 19 -9 16
-13z m50 9 c11 -17 0 -20 -21 -4 -17 13 -17 14 -2 15 9 0 20 -5 23 -11z m65 1
c0 -13 -28 -25 -38 -16 -3 4 0 11 8 16 20 13 30 12 30 0z"/>
<path d="M1945 1520 c-3 -5 -1 -10 4 -10 6 0 11 5 11 10 0 6 -2 10 -4 10 -3 0
-8 -4 -11 -10z"/>
<path d="M1940 1440 c0 -5 5 -10 10 -10 6 0 10 5 10 10 0 6 -4 10 -10 10 -5 0
-10 -4 -10 -10z"/>
<path d="M1940 1400 c0 -5 5 -10 10 -10 6 0 10 5 10 10 0 6 -4 10 -10 10 -5 0
-10 -4 -10 -10z"/>
<path d="M1115 701 c-3 -5 -1 -12 5 -16 5 -3 10 1 10 9 0 18 -6 21 -15 7z"/>
<path d="M1215 640 c-3 -5 -1 -10 4 -10 6 0 11 5 11 10 0 6 -2 10 -4 10 -3 0
-8 -4 -11 -10z"/>
<path d="M1360 590 c0 -5 5 -10 10 -10 6 0 10 5 10 10 0 6 -4 10 -10 10 -5 0
-10 -4 -10 -10z"/>
<path d="M1430 570 c0 -5 5 -10 10 -10 6 0 10 5 10 10 0 6 -4 10 -10 10 -5 0
-10 -4 -10 -10z"/>
<path d="M1470 560 c0 -5 5 -10 10 -10 6 0 10 5 10 10 0 6 -4 10 -10 10 -5 0
-10 -4 -10 -10z"/>
<path d="M809 1584 c26 -33 26 -46 1 -112 -11 -29 -20 -61 -20 -72 0 -27 62
-53 103 -42 l30 8 -2 68 c-3 74 -11 105 -32 123 -12 9 -14 0 -14 -50 -1 -34
-6 -71 -14 -82 -12 -19 -12 -18 -6 5 4 14 9 46 12 72 5 43 3 50 -25 78 -37 37
-61 40 -33 4z m71 -219 c0 -5 -5 -3 -10 5 -5 8 -10 20 -10 25 0 6 5 3 10 -5 5
-8 10 -19 10 -25z"/>
<path d="M2115 1578 c-26 -30 -26 -35 -20 -110 5 -57 4 -83 -5 -93 -19 -23 -6
-28 34 -14 33 12 36 16 36 54 -1 22 -7 51 -15 65 -21 37 -18 80 7 107 17 19
18 23 6 23 -9 0 -28 -14 -43 -32z"/>
<path d="M2064 1549 c-14 -15 -21 -42 -25 -98 -6 -82 1 -102 29 -85 14 9 17
27 17 108 0 53 0 96 -1 96 0 0 -9 -9 -20 -21z"/>
<path d="M740 717 c0 -48 43 -77 115 -77 45 0 85 -13 85 -28 0 -11 -131 3
-157 17 -13 6 -23 8 -23 3 0 -19 40 -44 90 -57 62 -16 93 -38 42 -30 -18 3
-47 7 -64 10 l-33 5 24 -20 c13 -11 43 -25 67 -31 l44 -11 0 -109 0 -109 123
0 c113 0 130 -3 222 -34 170 -58 197 -61 294 -36 46 11 112 32 148 45 57 22
82 25 194 25 l129 0 0 110 0 110 44 11 c25 6 53 20 62 30 17 18 16 19 -14 14
-99 -16 -98 -16 -79 -1 11 8 38 18 60 21 39 7 87 38 87 57 0 5 -10 3 -22 -3
-27 -15 -158 -28 -158 -17 0 13 48 28 91 28 54 0 95 23 107 60 13 37 10 37
-23 4 -24 -24 -30 -25 -83 -19 -55 6 -66 3 -247 -69 -105 -41 -234 -87 -288
-101 l-98 -26 -97 27 c-53 14 -182 60 -286 101 -181 72 -190 74 -247 68 -55
-6 -60 -5 -84 21 -18 19 -25 22 -25 11z m1219 -240 c1 -4 -10 -1 -23 8 -25 17
-56 11 -56 -10 0 -8 10 -17 23 -20 54 -17 86 -77 54 -103 -7 -6 -34 -10 -59
-9 -42 2 -45 3 -35 23 9 21 10 21 28 3 21 -21 28 -23 49 -9 12 7 12 12 -4 29
-11 12 -24 21 -29 21 -19 0 -47 33 -47 55 0 28 17 42 55 47 28 3 42 -8 44 -35z
m-916 -4 l-6 -38 27 24 c14 14 26 30 26 38 0 7 9 13 20 13 11 0 20 -2 20 -4 0
-2 -18 -23 -40 -47 -27 -30 -36 -45 -27 -49 7 -3 26 -15 42 -28 23 -18 26 -25
16 -35 -10 -9 -18 -5 -40 21 -34 40 -45 41 -37 2 5 -26 3 -30 -17 -30 -21 0
-22 4 -22 85 0 81 1 85 22 85 20 0 21 -4 16 -37z m547 -8 c0 -9 -9 -15 -25
-15 -16 0 -25 -6 -25 -15 0 -9 10 -15 26 -15 14 0 23 -4 19 -10 -3 -5 -15 -10
-26 -10 -13 0 -19 -7 -19 -21 0 -17 5 -20 25 -16 16 3 24 0 22 -7 -2 -6 -21
-12 -43 -14 l-39 -3 3 61 c4 59 4 60 32 60 16 0 32 5 35 10 9 14 15 12 15 -5z
m-353 -11 c2 -6 -9 -9 -27 -6 -23 3 -30 0 -30 -12 0 -10 9 -16 25 -16 14 0 25
-5 25 -11 0 -5 -10 -9 -22 -7 -18 2 -24 -3 -26 -21 -3 -21 0 -23 26 -19 23 3
28 1 25 -12 -3 -11 -14 -14 -41 -12 l-37 4 0 56 c0 55 1 57 30 63 36 8 48 6
52 -7z m577 0 c21 -21 20 -47 -3 -68 -20 -19 -59 -14 -73 8 -20 30 5 76 42 76
10 0 26 -7 34 -16z m-460 -9 c8 -21 -3 -43 -22 -47 -14 -3 -14 -6 5 -25 15
-15 18 -25 11 -29 -6 -4 -18 3 -27 15 -17 23 -34 19 -24 -5 3 -9 -2 -14 -13
-14 -17 0 -19 7 -16 60 l4 60 38 0 c24 0 40 -5 44 -15z m113 -1 c4 -11 -1 -22
-12 -30 -16 -12 -16 -14 -3 -14 21 0 31 -29 17 -46 -6 -8 -28 -14 -48 -14
l-36 0 0 60 0 60 38 0 c26 0 40 -5 44 -16z m241 -12 c2 -15 -3 -25 -19 -30
l-22 -8 27 -21 c17 -14 23 -24 16 -28 -6 -4 -22 3 -36 16 l-24 22 0 -21 c0
-12 -6 -22 -13 -22 -9 0 -13 17 -12 60 l0 61 40 -3 c33 -2 41 -7 43 -26z m98
-90 c-3 -2 -19 -1 -37 3 -21 5 -27 10 -19 15 13 8 65 -9 56 -18z m-326 -96
c19 0 64 3 100 7 l65 7 -82 -25 -83 -25 -82 25 -83 25 65 -7 c36 -4 81 -7 100
-7z"/>
<path d="M1755 446 c-19 -14 -19 -15 -1 -35 11 -12 25 -21 33 -21 23 0 27 30
6 51 -17 17 -21 18 -38 5z"/>
<path d="M1300 430 c0 -11 7 -20 15 -20 8 0 15 9 15 20 0 11 -7 20 -15 20 -8
0 -15 -9 -15 -20z"/>
<path d="M1410 435 c0 -8 9 -15 20 -15 11 0 20 7 20 15 0 8 -9 15 -20 15 -11
0 -20 -7 -20 -15z"/>
<path d="M1412 373 c2 -10 10 -18 18 -18 8 0 16 8 18 18 2 12 -3 17 -18 17
-15 0 -20 -5 -18 -17z"/>
<path d="M1650 430 c0 -11 7 -20 15 -20 8 0 15 9 15 20 0 11 -7 20 -15 20 -8
0 -15 -9 -15 -20z"/>
</g>
</svg>
